<mxfile host="65bd71144e">
    <diagram id="iC0JJr8HZw7UeFh9X2iT" name="Страница 1">
        <mxGraphModel dx="1316" dy="1696" grid="1" gridSize="10" guides="1" tooltips="1" connect="1" arrows="1" fold="1" page="1" pageScale="1" pageWidth="827" pageHeight="1169" math="0" shadow="0">
            <root>
                <mxCell id="0"/>
                <mxCell id="1" parent="0"/>
                <mxCell id="6" value="" style="edgeStyle=none;html=1;" parent="1" source="2" target="5" edge="1">
                    <mxGeometry relative="1" as="geometry"/>
                </mxCell>
                <mxCell id="2" value="Start" style="ellipse;whiteSpace=wrap;html=1;" parent="1" vertex="1">
                    <mxGeometry x="115" y="-20" width="90" height="40" as="geometry"/>
                </mxCell>
                <mxCell id="8" value="" style="edgeStyle=none;html=1;startArrow=none;" parent="1" source="93" target="7" edge="1">
                    <mxGeometry relative="1" as="geometry"/>
                </mxCell>
                <mxCell id="5" value="stringArray = [&quot;hello&quot;, &quot;2&quot;, &quot;world&quot;, &quot;:-)&quot;]" style="whiteSpace=wrap;html=1;" parent="1" vertex="1">
                    <mxGeometry x="50" y="40" width="220" height="40" as="geometry"/>
                </mxCell>
                <mxCell id="14" value="" style="edgeStyle=none;html=1;entryX=0.5;entryY=0;entryDx=0;entryDy=0;" parent="1" source="7" target="33" edge="1">
                    <mxGeometry relative="1" as="geometry">
                        <mxPoint x="146.9230769230769" y="260" as="targetPoint"/>
                    </mxGeometry>
                </mxCell>
                <mxCell id="7" value="sizeNewArray = SeartchStringWithSizeLessOrEqual3(stringArray)" style="shape=process;whiteSpace=wrap;html=1;backgroundOutline=1;size=0.0625;" parent="1" vertex="1">
                    <mxGeometry y="200" width="320" height="60" as="geometry"/>
                </mxCell>
                <mxCell id="12" value="" style="edgeStyle=none;html=1;" parent="1" source="10" target="11" edge="1">
                    <mxGeometry relative="1" as="geometry"/>
                </mxCell>
                <mxCell id="10" value="sizeNewArray = SeartchStringWithSizeLessOrEqual3(stringArray)" style="shape=process;whiteSpace=wrap;html=1;backgroundOutline=1;size=0.0625;" parent="1" vertex="1">
                    <mxGeometry y="663" width="320" height="60" as="geometry"/>
                </mxCell>
                <mxCell id="11" value="numberOfStrings = 0;&lt;br&gt;i = 0;" style="whiteSpace=wrap;html=1;" parent="1" vertex="1">
                    <mxGeometry x="60" y="740" width="200" height="43" as="geometry"/>
                </mxCell>
                <mxCell id="19" value="" style="edgeStyle=none;html=1;exitX=0.5;exitY=1;exitDx=0;exitDy=0;" edge="1" parent="1" source="11" target="18">
                    <mxGeometry relative="1" as="geometry">
                        <mxPoint x="160" y="888" as="sourcePoint"/>
                    </mxGeometry>
                </mxCell>
                <mxCell id="21" value="" style="edgeStyle=none;html=1;" edge="1" parent="1" source="18" target="20">
                    <mxGeometry relative="1" as="geometry"/>
                </mxCell>
                <mxCell id="31" style="edgeStyle=none;html=1;" edge="1" parent="1" target="32">
                    <mxGeometry relative="1" as="geometry">
                        <mxPoint x="241" y="1218" as="targetPoint"/>
                        <mxPoint x="250" y="838" as="sourcePoint"/>
                        <Array as="points">
                            <mxPoint x="360" y="838"/>
                            <mxPoint x="360" y="1218"/>
                        </Array>
                    </mxGeometry>
                </mxCell>
                <mxCell id="18" value="i = 0; i &amp;lt;stringArray.Length; i++" style="shape=hexagon;perimeter=hexagonPerimeter2;whiteSpace=wrap;html=1;fixedSize=1;" vertex="1" parent="1">
                    <mxGeometry x="70" y="808" width="180" height="60" as="geometry"/>
                </mxCell>
                <mxCell id="20" value="stringArray[i].Length&amp;nbsp; &amp;lt; 4" style="rhombus;whiteSpace=wrap;html=1;" vertex="1" parent="1">
                    <mxGeometry x="50" y="918" width="220" height="100" as="geometry"/>
                </mxCell>
                <mxCell id="30" style="edgeStyle=none;html=1;" edge="1" parent="1" source="22">
                    <mxGeometry relative="1" as="geometry">
                        <mxPoint x="70" y="838" as="targetPoint"/>
                        <Array as="points">
                            <mxPoint x="10" y="1098"/>
                            <mxPoint x="10" y="838"/>
                        </Array>
                    </mxGeometry>
                </mxCell>
                <mxCell id="22" value="numberOfStrings++" style="whiteSpace=wrap;html=1;" vertex="1" parent="1">
                    <mxGeometry x="100" y="1068" width="120" height="60" as="geometry"/>
                </mxCell>
                <mxCell id="25" value="" style="endArrow=classic;html=1;entryX=0.5;entryY=0;entryDx=0;entryDy=0;exitX=0.5;exitY=1;exitDx=0;exitDy=0;" edge="1" parent="1" source="20" target="22">
                    <mxGeometry relative="1" as="geometry">
                        <mxPoint x="110" y="1028" as="sourcePoint"/>
                        <mxPoint x="210" y="1028" as="targetPoint"/>
                    </mxGeometry>
                </mxCell>
                <mxCell id="26" value="yes" style="edgeLabel;resizable=0;html=1;align=center;verticalAlign=middle;" connectable="0" vertex="1" parent="25">
                    <mxGeometry relative="1" as="geometry"/>
                </mxCell>
                <mxCell id="28" value="" style="endArrow=classic;html=1;entryX=0;entryY=0.5;entryDx=0;entryDy=0;exitX=0;exitY=0.5;exitDx=0;exitDy=0;" edge="1" parent="1" source="20" target="18">
                    <mxGeometry relative="1" as="geometry">
                        <mxPoint x="90" y="908" as="sourcePoint"/>
                        <mxPoint x="220" y="898" as="targetPoint"/>
                        <Array as="points">
                            <mxPoint x="10" y="968"/>
                            <mxPoint x="10" y="918"/>
                            <mxPoint x="10" y="838"/>
                        </Array>
                    </mxGeometry>
                </mxCell>
                <mxCell id="29" value="No" style="edgeLabel;resizable=0;html=1;align=center;verticalAlign=middle;" connectable="0" vertex="1" parent="28">
                    <mxGeometry relative="1" as="geometry"/>
                </mxCell>
                <mxCell id="44" value="" style="edgeStyle=none;html=1;" edge="1" parent="1" source="32" target="43">
                    <mxGeometry relative="1" as="geometry"/>
                </mxCell>
                <mxCell id="32" value="return numberOfStrings" style="shape=parallelogram;perimeter=parallelogramPerimeter;whiteSpace=wrap;html=1;fixedSize=1;" vertex="1" parent="1">
                    <mxGeometry x="85" y="1188" width="120" height="60" as="geometry"/>
                </mxCell>
                <mxCell id="37" value="" style="edgeStyle=none;html=1;" edge="1" parent="1" source="33" target="36">
                    <mxGeometry relative="1" as="geometry"/>
                </mxCell>
                <mxCell id="33" value="&lt;span&gt;newStringArray = CreateArrayWithSizeLessOrEqual3 (stringArray, sizeNewArray)&lt;/span&gt;" style="shape=process;whiteSpace=wrap;html=1;backgroundOutline=1;size=0.0625;" vertex="1" parent="1">
                    <mxGeometry y="280" width="320" height="60" as="geometry"/>
                </mxCell>
                <mxCell id="40" value="" style="edgeStyle=none;html=1;" edge="1" parent="1" source="36">
                    <mxGeometry relative="1" as="geometry">
                        <mxPoint x="160" y="410" as="targetPoint"/>
                    </mxGeometry>
                </mxCell>
                <mxCell id="36" value="PrintArray (newStringArray)" style="shape=process;whiteSpace=wrap;html=1;backgroundOutline=1;size=0.0625;" vertex="1" parent="1">
                    <mxGeometry y="360" width="320" height="40" as="geometry"/>
                </mxCell>
                <mxCell id="39" value="end" style="ellipse;whiteSpace=wrap;html=1;" vertex="1" parent="1">
                    <mxGeometry x="130" y="420" width="60" height="40" as="geometry"/>
                </mxCell>
                <mxCell id="42" value="" style="edgeStyle=none;html=1;" edge="1" parent="1" source="41" target="10">
                    <mxGeometry relative="1" as="geometry">
                        <mxPoint x="160" y="660" as="targetPoint"/>
                    </mxGeometry>
                </mxCell>
                <mxCell id="41" value="Start" style="ellipse;whiteSpace=wrap;html=1;" vertex="1" parent="1">
                    <mxGeometry x="112.5" y="585" width="95" height="50" as="geometry"/>
                </mxCell>
                <mxCell id="43" value="end" style="ellipse;whiteSpace=wrap;html=1;" vertex="1" parent="1">
                    <mxGeometry x="85" y="1270" width="120" height="60" as="geometry"/>
                </mxCell>
                <mxCell id="47" value="" style="edgeStyle=none;html=1;" edge="1" parent="1" source="45" target="46">
                    <mxGeometry relative="1" as="geometry"/>
                </mxCell>
                <mxCell id="45" value="Start" style="ellipse;whiteSpace=wrap;html=1;" vertex="1" parent="1">
                    <mxGeometry x="80" y="1370" width="120" height="60" as="geometry"/>
                </mxCell>
                <mxCell id="49" value="" style="edgeStyle=none;html=1;" edge="1" parent="1" source="46" target="48">
                    <mxGeometry relative="1" as="geometry"/>
                </mxCell>
                <mxCell id="46" value="&lt;span&gt;CreateArrayWithSizeLessOrEqual3 &lt;br&gt;(stringArray, sizeNewArray)&lt;/span&gt;" style="shape=process;whiteSpace=wrap;html=1;backgroundOutline=1;" vertex="1" parent="1">
                    <mxGeometry x="-60" y="1450" width="400" height="60" as="geometry"/>
                </mxCell>
                <mxCell id="61" value="" style="edgeStyle=none;html=1;" edge="1" parent="1" source="48" target="52">
                    <mxGeometry relative="1" as="geometry"/>
                </mxCell>
                <mxCell id="48" value="string[] newStringArray = new string [sizeNewArray]&lt;br&gt;j = 0" style="whiteSpace=wrap;html=1;" vertex="1" parent="1">
                    <mxGeometry y="1540" width="280" height="60" as="geometry"/>
                </mxCell>
                <mxCell id="50" value="" style="edgeStyle=none;html=1;" edge="1" parent="1" source="52" target="53">
                    <mxGeometry relative="1" as="geometry"/>
                </mxCell>
                <mxCell id="51" style="edgeStyle=none;html=1;" edge="1" parent="1" target="60">
                    <mxGeometry relative="1" as="geometry">
                        <mxPoint x="221" y="2030" as="targetPoint"/>
                        <mxPoint x="230" y="1650" as="sourcePoint"/>
                        <Array as="points">
                            <mxPoint x="340" y="1650"/>
                            <mxPoint x="340" y="2030"/>
                        </Array>
                    </mxGeometry>
                </mxCell>
                <mxCell id="52" value="i = 0; i &amp;lt;stringArray.Length; i++" style="shape=hexagon;perimeter=hexagonPerimeter2;whiteSpace=wrap;html=1;fixedSize=1;" vertex="1" parent="1">
                    <mxGeometry x="50" y="1620" width="180" height="60" as="geometry"/>
                </mxCell>
                <mxCell id="53" value="stringArray[i].Length&amp;nbsp; &amp;lt; 4" style="rhombus;whiteSpace=wrap;html=1;" vertex="1" parent="1">
                    <mxGeometry x="30" y="1730" width="220" height="100" as="geometry"/>
                </mxCell>
                <mxCell id="54" style="edgeStyle=none;html=1;" edge="1" parent="1" source="55">
                    <mxGeometry relative="1" as="geometry">
                        <mxPoint x="50" y="1650" as="targetPoint"/>
                        <Array as="points">
                            <mxPoint x="-10" y="1910"/>
                            <mxPoint x="-10" y="1650"/>
                        </Array>
                    </mxGeometry>
                </mxCell>
                <mxCell id="55" value="newStringArray[j] = stringArray[i]&lt;br&gt;j++" style="whiteSpace=wrap;html=1;" vertex="1" parent="1">
                    <mxGeometry x="10" y="1880" width="260" height="60" as="geometry"/>
                </mxCell>
                <mxCell id="56" value="" style="endArrow=classic;html=1;entryX=0.5;entryY=0;entryDx=0;entryDy=0;exitX=0.5;exitY=1;exitDx=0;exitDy=0;" edge="1" parent="1" source="53" target="55">
                    <mxGeometry relative="1" as="geometry">
                        <mxPoint x="90" y="1840" as="sourcePoint"/>
                        <mxPoint x="190" y="1840" as="targetPoint"/>
                    </mxGeometry>
                </mxCell>
                <mxCell id="57" value="yes" style="edgeLabel;resizable=0;html=1;align=center;verticalAlign=middle;" connectable="0" vertex="1" parent="56">
                    <mxGeometry relative="1" as="geometry"/>
                </mxCell>
                <mxCell id="58" value="" style="endArrow=classic;html=1;entryX=0;entryY=0.5;entryDx=0;entryDy=0;exitX=0;exitY=0.5;exitDx=0;exitDy=0;" edge="1" parent="1" source="53" target="52">
                    <mxGeometry relative="1" as="geometry">
                        <mxPoint x="70" y="1720" as="sourcePoint"/>
                        <mxPoint x="200" y="1710" as="targetPoint"/>
                        <Array as="points">
                            <mxPoint x="-10" y="1780"/>
                            <mxPoint x="-10" y="1730"/>
                            <mxPoint x="-10" y="1650"/>
                        </Array>
                    </mxGeometry>
                </mxCell>
                <mxCell id="59" value="No" style="edgeLabel;resizable=0;html=1;align=center;verticalAlign=middle;" connectable="0" vertex="1" parent="58">
                    <mxGeometry relative="1" as="geometry"/>
                </mxCell>
                <mxCell id="60" value="return newStringArray" style="shape=parallelogram;perimeter=parallelogramPerimeter;whiteSpace=wrap;html=1;fixedSize=1;" vertex="1" parent="1">
                    <mxGeometry x="40" y="2000" width="190" height="60" as="geometry"/>
                </mxCell>
                <mxCell id="62" value="" style="edgeStyle=none;html=1;" edge="1" parent="1" target="63">
                    <mxGeometry relative="1" as="geometry">
                        <mxPoint x="135" y="2060" as="sourcePoint"/>
                    </mxGeometry>
                </mxCell>
                <mxCell id="63" value="end" style="ellipse;whiteSpace=wrap;html=1;" vertex="1" parent="1">
                    <mxGeometry x="75" y="2082" width="120" height="60" as="geometry"/>
                </mxCell>
                <mxCell id="64" value="" style="edgeStyle=none;html=1;" edge="1" parent="1" source="65" target="67">
                    <mxGeometry relative="1" as="geometry"/>
                </mxCell>
                <mxCell id="65" value="Start" style="ellipse;whiteSpace=wrap;html=1;" vertex="1" parent="1">
                    <mxGeometry x="530" y="1360" width="120" height="60" as="geometry"/>
                </mxCell>
                <mxCell id="66" value="" style="edgeStyle=none;html=1;entryX=0.5;entryY=0;entryDx=0;entryDy=0;startArrow=none;" edge="1" parent="1" source="83" target="72">
                    <mxGeometry relative="1" as="geometry">
                        <mxPoint x="590" y="1540" as="targetPoint"/>
                    </mxGeometry>
                </mxCell>
                <mxCell id="67" value="PrintStringArray(StringArray)" style="shape=process;whiteSpace=wrap;html=1;backgroundOutline=1;size=0.05;" vertex="1" parent="1">
                    <mxGeometry x="390" y="1450" width="400" height="60" as="geometry"/>
                </mxCell>
                <mxCell id="70" value="" style="edgeStyle=none;html=1;startArrow=none;" edge="1" parent="1" source="85" target="73">
                    <mxGeometry relative="1" as="geometry"/>
                </mxCell>
                <mxCell id="71" style="edgeStyle=none;html=1;" edge="1" parent="1" target="80">
                    <mxGeometry relative="1" as="geometry">
                        <mxPoint x="671" y="2030" as="targetPoint"/>
                        <mxPoint x="680" y="1650" as="sourcePoint"/>
                        <Array as="points">
                            <mxPoint x="790" y="1650"/>
                            <mxPoint x="790" y="2030"/>
                        </Array>
                    </mxGeometry>
                </mxCell>
                <mxCell id="95" value="" style="edgeStyle=none;html=1;" edge="1" parent="1" source="72" target="85">
                    <mxGeometry relative="1" as="geometry"/>
                </mxCell>
                <mxCell id="72" value="i = 0; i &amp;lt;StringArray.Length; i++" style="shape=hexagon;perimeter=hexagonPerimeter2;whiteSpace=wrap;html=1;fixedSize=1;" vertex="1" parent="1">
                    <mxGeometry x="480" y="1620" width="220" height="60" as="geometry"/>
                </mxCell>
                <mxCell id="73" value="i == stringArray.Length -1" style="rhombus;whiteSpace=wrap;html=1;" vertex="1" parent="1">
                    <mxGeometry x="500" y="1780" width="180" height="50" as="geometry"/>
                </mxCell>
                <mxCell id="75" value="newStringArray[j] = stringArray[i]&lt;br&gt;j++" style="whiteSpace=wrap;html=1;" vertex="1" parent="1">
                    <mxGeometry x="460" y="1880" width="260" height="60" as="geometry"/>
                </mxCell>
                <mxCell id="76" value="" style="endArrow=classic;html=1;entryX=0.5;entryY=0;entryDx=0;entryDy=0;exitX=0.5;exitY=1;exitDx=0;exitDy=0;" edge="1" parent="1" source="73" target="75">
                    <mxGeometry relative="1" as="geometry">
                        <mxPoint x="540" y="1840" as="sourcePoint"/>
                        <mxPoint x="640" y="1840" as="targetPoint"/>
                        <Array as="points">
                            <mxPoint x="590" y="1860"/>
                        </Array>
                    </mxGeometry>
                </mxCell>
                <mxCell id="77" value="no" style="edgeLabel;resizable=0;html=1;align=center;verticalAlign=middle;" connectable="0" vertex="1" parent="76">
                    <mxGeometry relative="1" as="geometry"/>
                </mxCell>
                <mxCell id="80" value="return newStringArray" style="shape=parallelogram;perimeter=parallelogramPerimeter;whiteSpace=wrap;html=1;fixedSize=1;" vertex="1" parent="1">
                    <mxGeometry x="490" y="2000" width="190" height="60" as="geometry"/>
                </mxCell>
                <mxCell id="81" value="" style="edgeStyle=none;html=1;" edge="1" parent="1" target="82">
                    <mxGeometry relative="1" as="geometry">
                        <mxPoint x="585" y="2060" as="sourcePoint"/>
                    </mxGeometry>
                </mxCell>
                <mxCell id="82" value="end" style="ellipse;whiteSpace=wrap;html=1;" vertex="1" parent="1">
                    <mxGeometry x="525" y="2082" width="120" height="60" as="geometry"/>
                </mxCell>
                <mxCell id="83" value="&quot;[&quot;" style="shape=parallelogram;perimeter=parallelogramPerimeter;whiteSpace=wrap;html=1;fixedSize=1;" vertex="1" parent="1">
                    <mxGeometry x="530" y="1530" width="120" height="60" as="geometry"/>
                </mxCell>
                <mxCell id="84" value="" style="edgeStyle=none;html=1;entryX=0.5;entryY=0;entryDx=0;entryDy=0;endArrow=none;" edge="1" parent="1" source="67" target="83">
                    <mxGeometry relative="1" as="geometry">
                        <mxPoint x="590" y="1510" as="sourcePoint"/>
                        <mxPoint x="590" y="1620" as="targetPoint"/>
                    </mxGeometry>
                </mxCell>
                <mxCell id="85" value="&lt;span&gt;&quot;stringArray[i]&quot;&lt;/span&gt;" style="shape=parallelogram;perimeter=parallelogramPerimeter;whiteSpace=wrap;html=1;fixedSize=1;" vertex="1" parent="1">
                    <mxGeometry x="530" y="1710" width="120" height="30" as="geometry"/>
                </mxCell>
                <mxCell id="88" value="" style="endArrow=classic;html=1;entryX=0;entryY=0.5;entryDx=0;entryDy=0;exitX=0;exitY=0.5;exitDx=0;exitDy=0;" edge="1" parent="1" source="73" target="72">
                    <mxGeometry relative="1" as="geometry">
                        <mxPoint x="400" y="1805" as="sourcePoint"/>
                        <mxPoint x="400" y="1805" as="targetPoint"/>
                        <Array as="points">
                            <mxPoint x="440" y="1805"/>
                            <mxPoint x="440" y="1740"/>
                            <mxPoint x="440" y="1650"/>
                        </Array>
                    </mxGeometry>
                </mxCell>
                <mxCell id="89" value="Yes" style="edgeLabel;resizable=0;html=1;align=center;verticalAlign=middle;" connectable="0" vertex="1" parent="88">
                    <mxGeometry relative="1" as="geometry"/>
                </mxCell>
                <mxCell id="90" value="PrintStringArray(stringArray)" style="shape=process;whiteSpace=wrap;html=1;backgroundOutline=1;" vertex="1" parent="1">
                    <mxGeometry x="55" y="100" width="210" height="40" as="geometry"/>
                </mxCell>
                <mxCell id="92" value="" style="edgeStyle=none;html=1;endArrow=none;" edge="1" parent="1" source="5" target="90">
                    <mxGeometry relative="1" as="geometry">
                        <mxPoint x="159.090909090909" y="80" as="sourcePoint"/>
                        <mxPoint x="151.36363636363626" y="250" as="targetPoint"/>
                    </mxGeometry>
                </mxCell>
                <mxCell id="93" value="- &amp;gt;" style="shape=parallelogram;perimeter=parallelogramPerimeter;whiteSpace=wrap;html=1;fixedSize=1;" vertex="1" parent="1">
                    <mxGeometry x="100" y="150" width="120" height="30" as="geometry"/>
                </mxCell>
                <mxCell id="94" value="" style="edgeStyle=none;html=1;startArrow=none;endArrow=none;" edge="1" parent="1" source="90" target="93">
                    <mxGeometry relative="1" as="geometry">
                        <mxPoint x="158.75" y="140" as="sourcePoint"/>
                        <mxPoint x="151.875" y="250" as="targetPoint"/>
                    </mxGeometry>
                </mxCell>
            </root>
        </mxGraphModel>
    </diagram>
</mxfile>